{"title":"Naomi Kawase - Hanezu no tsuki (2011) DVDRip x264","uid":8357670,"size":1400969109,"categoryP":"video","categoryS":"movies","magnet":"?xt=urn:btih:3734b4acc58360c67d2b958593d86c55515e328f&amp;dn=Naomi+Kawase+-+Hanezu+no+tsuki+%282011%29+DVDRip+x264&amp;tr=udp%3A%2F%2Ftracker.openbittorrent.com%3A80&amp;tr=udp%3A%2F%2Fopen.demonii.com%3A1337&amp;tr=udp%3A%2F%2Ftracker.coppersurfer.tk%3A6969&amp;tr=udp%3A%2F%2Fexodus.desync.com%3A6969","seeders":10,"leechers":2,"uploader":"rpessoa","files":1,"time":1365534956,"description":"A woman is torn between two men and two ways of life in this drama from writer and director Naomi Kawase. Kayoko (Hako Oshima) lives a serene existence in Asuka, a village where nature and civilization live in harmony, and she spends her days making scarves and dying them crimson using natural materials. Kayoko shares her home with her long-time boyfriend Tetsuya (Tetsuya Akikawa), who makes his living in the publishing industry and tends his garden in his spare time. From rottentomatoes\n\nSUBS: English\n &lt;a href=&quot;\nhttp://www.imdb.com/title/tt1896753/&quot; rel=&quot;nofollow&quot; target=&quot;_NEW&quot;&gt;\nhttp://www.imdb.com/title/tt1896753/&lt;/a&gt;\n\nGeneral\nComplete name : Hanezu.mkv\nFormat : Matroska\nFormat version : Version 2\nFile size : 1.30 GiB\nDuration : 1h 30mn\nOverall bit rate : 2 058 Kbps\nMovie name : Hanezu no tsuki\nEncoded date : UTC 2012-12-29 21:19:49\nWriting application : Lavf54.49.102\nWriting library : Lavf54.49.102\n\nVideo\nID : 1\nFormat : AVC\nFormat/Info : Advanced Video Codec\nFormat profile : &lt;a class=&quot;__cf_email__&quot; href=&quot;/cdn-cgi/l/email-protection&quot; data-cfemail=&quot;420a2b252a020e766c73&quot;&gt;[email&amp;#160;protected]&lt;/a&gt;&lt;script cf-hash='f9e31' type=&quot;text/javascript&quot;&gt;\n/* &lt;![CDATA[ */!function(){try{var t=&quot;currentScript&quot;in document?document.currentScript:function(){for(var t=document.getElementsByTagName(&quot;script&quot;),e=t.length;e--;)if(t[e].getAttribute(&quot;cf-hash&quot;))return t[e]}();if(t&amp;&amp;t.previousSibling){var e,r,n,i,c=t.previousSibling,a=c.getAttribute(&quot;data-cfemail&quot;);if(a){for(e=&quot;&quot;,r=parseInt(a.substr(0,2),16),n=2;a.length-n;n+=2)i=parseInt(a.substr(n,2),16)^r,e+=String.fromCharCode(i);e=document.createTextNode(e),c.parentNode.replaceChild(e,c)}}}catch(u){}}();/* ]]&gt; */&lt;/script&gt;\nFormat settings, CABAC : Yes\nFormat settings, ReFrames : 5 frames\nCodec ID : V_MPEG4/ISO/AVC\nDuration : 1h 30mn\nBit rate : 1 800 Kbps\nWidth : 832 pixels\nHeight : 468 pixels\nDisplay aspect ratio : 16:9\nFrame rate mode : Constant\nFrame rate : 23.976 fps\nColor space : YUV\nChroma subsampling : 4:2:0\nBit depth : 8 bits\nScan type : Progressive\nBits/(Pixel*Frame) : 0.193\nStream size : 1.12 GiB (86%)\nWriting library : x264 core 129 r2230\nEncoding settings : cabac=1 / ref=6 / deblock=1:-2:-1 / analyse=0x3:0x133 / me=umh / subme=7 / psy=1 / psy_rd=1.00:0.20 / mixed_ref=0 / me_range=24 / chroma_me=1 / trellis=2 / 8x8dct=1 / cqm=0 / deadzone=21,11 / fast_pskip=1 / chroma_qp_offset=-3 / threads=12 / lookahead_threads=2 / sliced_threads=0 / nr=0 / decimate=1 / interlaced=0 / bluray_compat=0 / constrained_intra=0 / bframes=5 / b_pyramid=1 / b_adapt=2 / b_bias=0 / direct=3 / weightb=1 / open_gop=0 / weightp=2 / keyint=250 / keyint_min=23 / scenecut=40 / intra_refresh=0 / rc_lookahead=50 / rc=2pass / mbtree=1 / bitrate=1800 / ratetol=1.0 / qcomp=0.60 / qpmin=10 / qpmax=30 / qpstep=4 / cplxblur=20.0 / qblur=0.5 / vbv_maxrate=24000 / vbv_bufsize=24000 / nal_hrd=none / ip_ratio=1.40 / aq=1:1.00\nDefault : Yes\nForced : No\n\nAudio\nID : 2\nFormat : AC-3\nFormat/Info : Audio Coding 3\nMode extension : CM (complete main)\nFormat settings, Endianness : Big\nCodec ID : A_AC3\nDuration : 1h 30mn\nBit rate mode : Constant\nBit rate : 256 Kbps\nChannel(s) : 2 channels\nChannel positions : Front: L R\nSampling rate : 48.0 KHz\nBit depth : 16 bits\nCompression mode : Lossy\nDelay relative to video : 1mn 5s\nStream size : 166 MiB (12%)\nLanguage : Japanese\nDefault : Yes\nForced : No\n\nThanks to wlfthirteen @ KG.","torrent":{"xt":"urn:btih:3734b4acc58360c67d2b958593d86c55515e328f","amp;dn":"Naomi+Kawase+-+Hanezu+no+tsuki+%282011%29+DVDRip+x264","amp;tr":["udp%3A%2F%2Ftracker.openbittorrent.com%3A80","udp%3A%2F%2Fopen.demonii.com%3A1337","udp%3A%2F%2Ftracker.coppersurfer.tk%3A6969","udp%3A%2F%2Fexodus.desync.com%3A6969"],"infoHash":"3734b4acc58360c67d2b958593d86c55515e328f","infoHashBuffer":{"type":"Buffer","data":[55,52,180,172,197,131,96,198,125,43,149,133,147,216,108,85,81,94,50,143]},"announce":[],"urlList":[]}}